<?xml version="1.0" encoding="iso-8859-1"?>
<!-- Generator: Adobe Illustrator 19.0.0, SVG Export Plug-In . SVG Version: 6.00 Build 0)  -->
<svg version="1.1" id="Capa_1" xmlns="http://www.w3.org/2000/svg" xmlns:xlink="http://www.w3.org/1999/xlink" x="0px" y="0px"
	 viewBox="0 0 480 480" style="enable-background:new 0 0 480 480;" xml:space="preserve">
<g>
	<circle style="fill:#FFD700;" cx="368" cy="40" r="40"/>
	<path style="fill:#FFD700;" d="M224,184h16v16h-16V184z"/>
	<path style="fill:#FFD700;" d="M256,200h16v16h-16V200z"/>
	<path style="fill:#FFD700;" d="M288,216h16v16h-16V216z"/>
	<path style="fill:#FFD700;" d="M224,240h16v16h-16V240z"/>
	<path style="fill:#FFD700;" d="M256,256h16v16h-16V256z"/>
	<path style="fill:#FFD700;" d="M288,272h16v16h-16V272z"/>
	<path style="fill:#FFD700;" d="M432,264h16v16h-16V264z"/>
	<path style="fill:#FFD700;" d="M464,280h16v16h-16V280z"/>
	<path style="fill:#FFD700;" d="M432,320h16v16h-16V320z"/>
	<path style="fill:#FFD700;" d="M464,336h16v16h-16V336z"/>
	<path style="fill:#FFD700;" d="M208,80l-48.216-40L160,64H80H48v32v48h32V96h80v24L208,80z"/>
</g>
<path style="fill:#FF5C64;" d="M91.727,240h-6.763c13.353-11.578,14.791-31.789,3.213-45.141s-31.789-14.791-45.141-3.213
	s-14.791,31.789-3.213,45.141c0.994,1.146,2.067,2.22,3.213,3.213h-6.762C11.822,240,0,259.822,0,284.273V360h24v120h80V360h24
	v-75.727C128,259.822,116.178,240,91.727,240z"/>
<g>
	<path style="fill:#F4393D;" d="M24,272h8v88h-8V272z"/>
	<path style="fill:#F4393D;" d="M96,272h8v88h-8V272z"/>
	<path style="fill:#F4393D;" d="M56,352h16v128H56V352z"/>
</g>
<path style="fill:#17AFDC;" d="M456,64l-52.597,90.166c-1.702,2.918-5.447,3.903-8.364,2.201c-0.175-0.102-0.344-0.212-0.508-0.331
	c-2.715-1.996-3.298-5.816-1.302-8.531c0.05-0.068,0.101-0.134,0.153-0.2c10.737-13.952,8.131-33.967-5.821-44.704
	c-3.575-2.751-7.694-4.713-12.083-5.754c-17.217-4.104-34.501,6.525-38.605,23.742c-0.579,2.428-0.872,4.915-0.874,7.411
	c-0.001,6.98,2.32,13.763,6.597,19.279c2.119,2.633,1.702,6.486-0.932,8.605c-0.066,0.053-0.132,0.104-0.2,0.154
	c-2.733,1.981-6.555,1.372-8.536-1.361c-0.119-0.164-0.229-0.333-0.331-0.508L280,64l-24,8l72,120v216h80V192l72-120L456,64z"/>
<path style="fill:#0066BA;" d="M360,280h16v128h-16V280z"/>
<path style="fill:#5358A1;" d="M432,432v-32H304v32h-40v48h208v-48H432z"/>
<g>
</g>
<g>
</g>
<g>
</g>
<g>
</g>
<g>
</g>
<g>
</g>
<g>
</g>
<g>
</g>
<g>
</g>
<g>
</g>
<g>
</g>
<g>
</g>
<g>
</g>
<g>
</g>
<g>
</g>
</svg>
